{
  "accessors": [
    {
      "bufferView": 2,
      "componentType": 5126,
      "count": 400,
      "max": [
        238.82525634765625,
        238.82530212402344,
        238.82530212402344
      ],
      "min": [
        -238.82530212402344,
        -238.82530212402344,
        -168.87498474121094
      ],
      "type": "VEC3"
    },
    {
      "bufferView": 2,
      "byteOffset": 4800,
      "componentType": 5126,
      "count": 400,
      "max": [
        1.0,
        1.0,
        1.0
      ],
      "min": [
        -1.0,
        -1.0,
        -0.7040591239929199
      ],
      "type": "VEC3"
    },
    {
      "bufferView": 1,
      "componentType": 5126,
      "count": 400,
      "max": [
        0.7500001192092896,
        1.0
      ],
      "min": [
        0.2499999850988388,
        0.25
      ],
      "type": "VEC2"
    },
    {
      "bufferView": 0,
      "componentType": 5125,
      "count": 2208,
      "type": "SCALAR"
    },
    {
      "bufferView": 2,
      "byteOffset": 9600,
      "componentType": 5126,
      "count": 1658,
      "max": [
        256.73828125,
        252.54168701171875,
        241.99452209472656
      ],
      "min": [
        -295.36737060546875,
        -252.54168701171875,
        -238.82530212402344
      ],
      "type": "VEC3"
    },
    {
      "bufferView": 2,
      "byteOffset": 29496,
      "componentType": 5126,
      "count": 1658,
      "max": [
        0.9995890259742737,
        1.0,
        0.997493326663971
      ],
      "min": [
        -0.9996280670166016,
        -1.0,
        -1.0
      ],
      "type": "VEC3"
    },
    {
      "bufferView": 1,
      "byteOffset": 3200,
      "componentType": 5126,
      "count": 1658,
      "max": [
        52.15519714355469,
        77.56250762939453
      ],
      "min": [
        -46.87223815917969,
        -62.359886169433594
      ],
      "type": "VEC2"
    },
    {
      "bufferView": 0,
      "byteOffset": 8832,
      "componentType": 5125,
      "count": 8880,
      "type": "SCALAR"
    },
    {
      "bufferView": 2,
      "byteOffset": 49392,
      "componentType": 5126,
      "count": 851,
      "max": [
        343.2990417480469,
        40.70076370239258,
        317.8603515625
      ],
      "min": [
        -326.7847900390625,
        -40.70076370239258,
        -58.256126403808594
      ],
      "type": "VEC3"
    },
    {
      "bufferView": 2,
      "byteOffset": 59604,
      "componentType": 5126,
      "count": 851,
      "max": [
        0.9987954497337341,
        1.0,
        0.995202898979187
      ],
      "min": [
        -0.9995166659355164,
        -1.0,
        -0.999139666557312
      ],
      "type": "VEC3"
    },
    {
      "bufferView": 1,
      "byteOffset": 16464,
      "componentType": 5126,
      "count": 851,
      "max": [
        1.0,
        1.7699854373931885
      ],
      "min": [
        0.0,
        0.0
      ],
      "type": "VEC2"
    },
    {
      "bufferView": 0,
      "byteOffset": 44352,
      "componentType": 5125,
      "count": 4278,
      "type": "SCALAR"
    },
    {
      "bufferView": 2,
      "byteOffset": 69816,
      "componentType": 5126,
      "count": 286,
      "max": [
        -75.40457153320313,
        127.01702880859375,
        -39.29552459716797
      ],
      "min": [
        -250.67820739746094,
        -127.01702880859375,
        -255.42337036132813
      ],
      "type": "VEC3"
    },
    {
      "bufferView": 2,
      "byteOffset": 73248,
      "componentType": 5126,
      "count": 286,
      "max": [
        0.9930850863456726,
        0.9902812838554382,
        0.9911493062973022
      ],
      "min": [
        -0.9996309876441956,
        -0.9902812838554382,
        -0.9984960556030273
      ],
      "type": "VEC3"
    },
    {
      "bufferView": 1,
      "byteOffset": 23272,
      "componentType": 5126,
      "count": 286,
      "max": [
        1.0,
        1.0
      ],
      "min": [
        0.0,
        0.0
      ],
      "type": "VEC2"
    },
    {
      "bufferView": 0,
      "byteOffset": 61464,
      "componentType": 5125,
      "count": 1362,
      "type": "SCALAR"
    },
    {
      "bufferView": 2,
      "byteOffset": 76680,
      "componentType": 5126,
      "count": 182,
      "max": [
        -163.04551696777344,
        89.74296569824219,
        16.240209579467773
      ],
      "min": [
        -295.1303405761719,
        -89.74296569824219,
        -199.3885955810547
      ],
      "type": "VEC3"
    },
    {
      "bufferView": 2,
      "byteOffset": 78864,
      "componentType": 5126,
      "count": 182,
      "max": [
        -0.4951574504375458,
        0.3391648232936859,
        -0.07022086530923843
      ],
      "min": [
        -0.9975314736366272,
        -0.3391648530960083,
        -0.8688026666641235
      ],
      "type": "VEC3"
    },
    {
      "bufferView": 1,
      "byteOffset": 25560,
      "componentType": 5126,
      "count": 182,
      "max": [
        1.000000238418579,
        1.0
      ],
      "min": [
        0.0,
        0.0
      ],
      "type": "VEC2"
    },
    {
      "bufferView": 0,
      "byteOffset": 66912,
      "componentType": 5125,
      "count": 330,
      "type": "SCALAR"
    },
    {
      "bufferView": 2,
      "byteOffset": 81048,
      "componentType": 5126,
      "count": 132,
      "max": [
        -280.9442138671875,
        107.09774017333984,
        34.6337776184082
      ],
      "min": [
        -295.36737060546875,
        -107.09774017333984,
        -38.35826110839844
      ],
      "type": "VEC3"
    },
    {
      "bufferView": 2,
      "byteOffset": 82632,
      "componentType": 5126,
      "count": 132,
      "max": [
        -0.8828372359275818,
        0.41692793369293213,
        0.029047880321741104
      ],
      "min": [
        -0.9996280670166016,
        -0.41692793369293213,
        -0.4045928418636322
      ],
      "type": "VEC3"
    },
    {
      "bufferView": 1,
      "byteOffset": 27016,
      "componentType": 5126,
      "count": 132,
      "max": [
        1.000000238418579,
        0.9375
      ],
      "min": [
        0.0,
        0.875
      ],
      "type": "VEC2"
    },
    {
      "bufferView": 0,
      "byteOffset": 68232,
      "componentType": 5125,
      "count": 384,
      "type": "SCALAR"
    }
  ],
  "asset": {
    "extras": {
      "author": "Anthony Yanez (https://sketchfab.com/paulyanez)",
      "license": "CC-BY-4.0 (http://creativecommons.org/licenses/by/4.0/)",
      "source": "https://sketchfab.com/3d-models/cheep-cheep-super-mario-bros-391db2fa80574b00a9d4625af1aa723b",
      "title": "Cheep Cheep (Super Mario Bros)"
    },
    "generator": "Sketchfab-12.66.0",
    "version": "2.0"
  },
  "bufferViews": [
    {
      "buffer": 0,
      "byteLength": 69768,
      "name": "floatBufferViews",
      "target": 34963
    },
    {
      "buffer": 0,
      "byteLength": 28072,
      "byteOffset": 69768,
      "byteStride": 8,
      "name": "floatBufferViews",
      "target": 34962
    },
    {
      "buffer": 0,
      "byteLength": 84216,
      "byteOffset": 97840,
      "byteStride": 12,
      "name": "floatBufferViews",
      "target": 34962
    }
  ],
  "buffers": [
    {
      "byteLength": 182056,
      "uri": "scene.bin"
    }
  ],
  "materials": [
    {
      "doubleSided": true,
      "name": "02_-_Default",
      "pbrMetallicRoughness": {
        "baseColorFactor": [
          0.8,
          0.0,
          0.0,
          1.0
        ],
        "metallicFactor": 0.3309832317,
        "roughnessFactor": 0.8929713596
      }
    },
    {
      "doubleSided": true,
      "name": "03_-_Default",
      "pbrMetallicRoughness": {
        "metallicFactor": 0.0,
        "roughnessFactor": 0.33365091459999996
      }
    },
    {
      "doubleSided": true,
      "name": "13_-_Default",
      "pbrMetallicRoughness": {
        "baseColorFactor": [
          0.862745,
          0.529412,
          0.0,
          1.0
        ],
        "metallicFactor": 0.4529344512,
        "roughnessFactor": 0.8929713596
      }
    },
    {
      "doubleSided": true,
      "name": "08_-_Default",
      "pbrMetallicRoughness": {
        "baseColorFactor": [
          0.7579697625,
          0.2839487544,
          0.2188197782,
          1.0
        ],
        "metallicFactor": 0.0,
        "roughnessFactor": 0.8929713596
      }
    },
    {
      "doubleSided": true,
      "name": "09_-_Default",
      "pbrMetallicRoughness": {
        "baseColorFactor": [
          0.0,
          0.0,
          0.0,
          1.0
        ],
        "metallicFactor": 0.0,
        "roughnessFactor": 0.8929713596
      }
    },
    {
      "doubleSided": true,
      "name": "07_-_Default",
      "pbrMetallicRoughness": {
        "baseColorFactor": [
          0.0,
          0.337255,
          0.419608,
          1.0
        ],
        "metallicFactor": 0.0,
        "roughnessFactor": 0.8929713596
      }
    }
  ],
  "meshes": [
    {
      "name": "Sphere001_02 - Default_0",
      "primitives": [
        {
          "attributes": {
            "NORMAL": 1,
            "POSITION": 0,
            "TEXCOORD_0": 2
          },
          "indices": 3,
          "material": 0,
          "mode": 4
        }
      ]
    },
    {
      "name": "Sphere001_03 - Default_0",
      "primitives": [
        {
          "attributes": {
            "NORMAL": 5,
            "POSITION": 4,
            "TEXCOORD_0": 6
          },
          "indices": 7,
          "material": 1,
          "mode": 4
        }
      ]
    },
    {
      "name": "Sphere001_13 - Default_0",
      "primitives": [
        {
          "attributes": {
            "NORMAL": 9,
            "POSITION": 8,
            "TEXCOORD_0": 10
          },
          "indices": 11,
          "material": 2,
          "mode": 4
        }
      ]
    },
    {
      "name": "Sphere001_08 - Default_0",
      "primitives": [
        {
          "attributes": {
            "NORMAL": 13,
            "POSITION": 12,
            "TEXCOORD_0": 14
          },
          "indices": 15,
          "material": 3,
          "mode": 4
        }
      ]
    },
    {
      "name": "Sphere001_09 - Default_0",
      "primitives": [
        {
          "attributes": {
            "NORMAL": 17,
            "POSITION": 16,
            "TEXCOORD_0": 18
          },
          "indices": 19,
          "material": 4,
          "mode": 4
        }
      ]
    },
    {
      "name": "Sphere001_07 - Default_0",
      "primitives": [
        {
          "attributes": {
            "NORMAL": 21,
            "POSITION": 20,
            "TEXCOORD_0": 22
          },
          "indices": 23,
          "material": 5,
          "mode": 4
        }
      ]
    }
  ],
  "nodes": [
    {
      "children": [
        1
      ],
      "matrix": [
        1.0,
        0.0,
        0.0,
        0.0,
        0.0,
        2.220446049250313e-16,
        -1.0,
        0.0,
        0.0,
        1.0,
        2.220446049250313e-16,
        0.0,
        0.0,
        0.0,
        0.0,
        1.0
      ],
      "name": "Sketchfab_model"
    },
    {
      "children": [
        2
      ],
      "matrix": [
        1.0,
        0.0,
        0.0,
        0.0,
        0.0,
        0.0,
        1.0,
        0.0,
        0.0,
        -1.0,
        0.0,
        0.0,
        0.0,
        0.0,
        0.0,
        1.0
      ],
      "name": "10d1991c392346919c1413b5388aa198.fbx"
    },
    {
      "children": [
        3
      ],
      "name": "RootNode"
    },
    {
      "children": [
        4,
        5,
        6,
        7,
        8,
        9
      ],
      "matrix": [
        0.9849875014030415,
        -0.3585061147733574,
        -2.909344430348238e-17,
        0.0,
        2.7755575615628914e-17,
        1.1102230246251565e-16,
        -1.0,
        0.0,
        0.3585061147733574,
        0.9849875014030416,
        1.1637377721392952e-16,
        0.0,
        0.0,
        0.0,
        0.0,
        1.0
      ],
      "name": "Sphere001"
    },
    {
      "mesh": 0,
      "name": "Sphere001_02 - Default_0"
    },
    {
      "mesh": 1,
      "name": "Sphere001_03 - Default_0"
    },
    {
      "mesh": 2,
      "name": "Sphere001_13 - Default_0"
    },
    {
      "mesh": 3,
      "name": "Sphere001_08 - Default_0"
    },
    {
      "mesh": 4,
      "name": "Sphere001_09 - Default_0"
    },
    {
      "mesh": 5,
      "name": "Sphere001_07 - Default_0"
    }
  ],
  "scene": 0,
  "scenes": [
    {
      "name": "Sketchfab_Scene",
      "nodes": [
        0
      ]
    }
  ]
}
