{
  "accessors": [
    {
      "bufferView": 2,
      "componentType": 5126,
      "count": 2160,
      "max": [
        72218.796875,
        27508.900390625,
        36654.1015625
      ],
      "min": [
        -66215.5,
        447.0639953613281,
        -36654.1015625
      ],
      "type": "VEC3"
    },
    {
      "bufferView": 2,
      "byteOffset": 25920,
      "componentType": 5126,
      "count": 2160,
      "max": [
        0.9999777674674988,
        0.9991830587387085,
        0.9989607930183411
      ],
      "min": [
        -0.9999774098396301,
        -0.9991827607154846,
        -0.9908890724182129
      ],
      "type": "VEC3"
    },
    {
      "bufferView": 3,
      "componentType": 5126,
      "count": 2160,
      "max": [
        0.9994785785675049,
        0.9999988675117493,
        0.9959244132041931,
        1.0
      ],
      "min": [
        -0.9995033740997314,
        -0.9999902248382568,
        -0.9993706941604614,
        -1.0
      ],
      "type": "VEC4"
    },
    {
      "bufferView": 1,
      "componentType": 5126,
      "count": 2160,
      "max": [
        33.40629959106445,
        17.765600204467773
      ],
      "min": [
        -23.140600204467773,
        -8.9375
      ],
      "type": "VEC2"
    },
    {
      "bufferView": 1,
      "byteOffset": 17280,
      "componentType": 5126,
      "count": 2160,
      "max": [
        33.40629959106445,
        17.765600204467773
      ],
      "min": [
        -23.140600204467773,
        -8.9375
      ],
      "type": "VEC2"
    },
    {
      "bufferView": 0,
      "componentType": 5125,
      "count": 3462,
      "type": "SCALAR"
    },
    {
      "bufferView": 2,
      "byteOffset": 51840,
      "componentType": 5126,
      "count": 7380,
      "max": [
        66051.203125,
        21744.80078125,
        32808.39453125
      ],
      "min": [
        10346.400390625,
        2747.22998046875,
        -32808.40234375
      ],
      "type": "VEC3"
    },
    {
      "bufferView": 2,
      "byteOffset": 140400,
      "componentType": 5126,
      "count": 7380,
      "max": [
        1.0,
        0.9996859431266785,
        0.9926979541778564
      ],
      "min": [
        -1.0,
        -0.9996857047080994,
        -0.9926354885101318
      ],
      "type": "VEC3"
    },
    {
      "bufferView": 3,
      "byteOffset": 34560,
      "componentType": 5126,
      "count": 7380,
      "max": [
        0.999985933303833,
        1.0,
        0.9999780654907227,
        1.0
      ],
      "min": [
        -0.9916545748710632,
        -1.0,
        -1.0,
        -1.0
      ],
      "type": "VEC4"
    },
    {
      "bufferView": 1,
      "byteOffset": 34560,
      "componentType": 5126,
      "count": 7380,
      "max": [
        2.197269916534424,
        2.6894500255584717
      ],
      "min": [
        -1.9765599966049194,
        -2.4375
      ],
      "type": "VEC2"
    },
    {
      "bufferView": 1,
      "byteOffset": 93600,
      "componentType": 5126,
      "count": 7380,
      "max": [
        2.197269916534424,
        2.6894500255584717
      ],
      "min": [
        -1.9765599966049194,
        -2.4375
      ],
      "type": "VEC2"
    },
    {
      "bufferView": 0,
      "byteOffset": 13848,
      "componentType": 5125,
      "count": 10356,
      "type": "SCALAR"
    },
    {
      "bufferView": 2,
      "byteOffset": 228960,
      "componentType": 5126,
      "count": 16,
      "max": [
        -267.7931213378906,
        13147.099609375,
        20215.5
      ],
      "min": [
        -20602.30078125,
        8676.26953125,
        -20231.19921875
      ],
      "type": "VEC3"
    },
    {
      "bufferView": 2,
      "byteOffset": 229152,
      "componentType": 5126,
      "count": 16,
      "max": [
        -0.2588178813457489,
        0.0,
        0.9659260511398315
      ],
      "min": [
        -1.0,
        0.0,
        -0.9659262299537659
      ],
      "type": "VEC3"
    },
    {
      "bufferView": 1,
      "byteOffset": 152640,
      "componentType": 5126,
      "count": 16,
      "max": [
        1.0,
        1.0
      ],
      "min": [
        0.0,
        0.0
      ],
      "type": "VEC2"
    },
    {
      "bufferView": 0,
      "byteOffset": 55272,
      "componentType": 5125,
      "count": 24,
      "type": "SCALAR"
    },
    {
      "bufferView": 2,
      "byteOffset": 229344,
      "componentType": 5126,
      "count": 325,
      "max": [
        48000.3984375,
        13133.599609375,
        20069.5
      ],
      "min": [
        -20422.400390625,
        2990.72998046875,
        -20069.5
      ],
      "type": "VEC3"
    },
    {
      "bufferView": 2,
      "byteOffset": 233244,
      "componentType": 5126,
      "count": 325,
      "max": [
        0.9999938607215881,
        1.0,
        0.9999991059303284
      ],
      "min": [
        -1.0,
        -1.0,
        -0.9999998807907104
      ],
      "type": "VEC3"
    },
    {
      "bufferView": 3,
      "byteOffset": 152640,
      "componentType": 5126,
      "count": 325,
      "max": [
        1.0,
        0.9999547004699707,
        0.9999997615814209,
        1.0
      ],
      "min": [
        -1.0,
        -1.0,
        -1.0,
        -1.0
      ],
      "type": "VEC4"
    },
    {
      "bufferView": 1,
      "byteOffset": 152768,
      "componentType": 5126,
      "count": 325,
      "max": [
        0.96875,
        -0.038054998964071274
      ],
      "min": [
        0.006988999899476767,
        -0.9921879768371582
      ],
      "type": "VEC2"
    },
    {
      "bufferView": 1,
      "byteOffset": 155368,
      "componentType": 5126,
      "count": 325,
      "max": [
        0.96875,
        -0.038054998964071274
      ],
      "min": [
        0.006988999899476767,
        -0.9921879768371582
      ],
      "type": "VEC2"
    },
    {
      "bufferView": 0,
      "byteOffset": 55368,
      "componentType": 5125,
      "count": 684,
      "type": "SCALAR"
    },
    {
      "bufferView": 2,
      "byteOffset": 237144,
      "componentType": 5126,
      "count": 577,
      "max": [
        71098.296875,
        25361.80078125,
        37243.69921875
      ],
      "min": [
        -71294.5,
        949.2789916992188,
        -37289.8984375
      ],
      "type": "VEC3"
    },
    {
      "bufferView": 2,
      "byteOffset": 244068,
      "componentType": 5126,
      "count": 577,
      "max": [
        0.9999876022338867,
        0.9948528409004211,
        0.9999761581420898
      ],
      "min": [
        -1.0,
        -0.9998601078987122,
        -0.9999761581420898
      ],
      "type": "VEC3"
    },
    {
      "bufferView": 3,
      "byteOffset": 157840,
      "componentType": 5126,
      "count": 577,
      "max": [
        0.9999761581420898,
        0.9999942779541016,
        1.0,
        1.0
      ],
      "min": [
        -0.989741861820221,
        -0.9999924898147583,
        -1.0,
        -1.0
      ],
      "type": "VEC4"
    },
    {
      "bufferView": 1,
      "byteOffset": 157968,
      "componentType": 5126,
      "count": 577,
      "max": [
        68.25,
        5.875
      ],
      "min": [
        -48.15629959106445,
        -2.4023399353027344
      ],
      "type": "VEC2"
    },
    {
      "bufferView": 1,
      "byteOffset": 162584,
      "componentType": 5126,
      "count": 577,
      "max": [
        68.25,
        5.875
      ],
      "min": [
        -48.15629959106445,
        -2.4023399353027344
      ],
      "type": "VEC2"
    },
    {
      "bufferView": 0,
      "byteOffset": 58104,
      "componentType": 5125,
      "count": 984,
      "type": "SCALAR"
    },
    {
      "bufferView": 2,
      "byteOffset": 250992,
      "componentType": 5126,
      "count": 27009,
      "max": [
        72218.796875,
        27512.5,
        39022.1015625
      ],
      "min": [
        -72218.796875,
        447.0639953613281,
        -39014.8984375
      ],
      "type": "VEC3"
    },
    {
      "bufferView": 2,
      "byteOffset": 575100,
      "componentType": 5126,
      "count": 27009,
      "max": [
        1.0,
        1.0,
        1.0
      ],
      "min": [
        -1.0,
        -1.0,
        -1.0
      ],
      "type": "VEC3"
    },
    {
      "bufferView": 3,
      "byteOffset": 167072,
      "componentType": 5126,
      "count": 27009,
      "max": [
        0.9999986886978149,
        1.0,
        1.0,
        1.0
      ],
      "min": [
        -0.9999991655349731,
        -1.0,
        -1.0,
        -1.0
      ],
      "type": "VEC4"
    },
    {
      "bufferView": 1,
      "byteOffset": 167200,
      "componentType": 5126,
      "count": 27009,
      "max": [
        68.25,
        12.867199897766113
      ],
      "min": [
        -54.96879959106445,
        -4.484379768371582
      ],
      "type": "VEC2"
    },
    {
      "bufferView": 1,
      "byteOffset": 383272,
      "componentType": 5126,
      "count": 27009,
      "max": [
        68.25,
        12.867199897766113
      ],
      "min": [
        -54.96879959106445,
        -4.484379768371582
      ],
      "type": "VEC2"
    },
    {
      "bufferView": 0,
      "byteOffset": 62040,
      "componentType": 5125,
      "count": 37494,
      "type": "SCALAR"
    },
    {
      "bufferView": 2,
      "byteOffset": 899208,
      "componentType": 5126,
      "count": 32,
      "max": [
        57585.6015625,
        12168.5,
        27980.998046875
      ],
      "min": [
        55539.6015625,
        9657.7099609375,
        -27981.001953125
      ],
      "type": "VEC3"
    },
    {
      "bufferView": 2,
      "byteOffset": 899592,
      "componentType": 5126,
      "count": 32,
      "max": [
        0.1106918603181839,
        0.5987236499786377,
        -0.7956186532974243
      ],
      "min": [
        -0.11067352443933487,
        -0.5985006093978882,
        -0.8127593994140625
      ],
      "type": "VEC3"
    },
    {
      "bufferView": 1,
      "byteOffset": 599344,
      "componentType": 5126,
      "count": 32,
      "max": [
        0.8710939884185791,
        -0.6699219942092896
      ],
      "min": [
        0.09576400369405746,
        -0.8134769797325134
      ],
      "type": "VEC2"
    },
    {
      "bufferView": 0,
      "byteOffset": 212016,
      "componentType": 5125,
      "count": 48,
      "type": "SCALAR"
    }
  ],
  "asset": {
    "extras": {
      "author": "tscftw (https://sketchfab.com/tscftw)",
      "license": "CC-BY-4.0 (http://creativecommons.org/licenses/by/4.0/)",
      "source": "https://sketchfab.com/3d-models/harrower-class-dreadnought-fc3fdf256a3841f0bc3fbe25ee31bca8",
      "title": "Harrower Class Dreadnought"
    },
    "generator": "Sketchfab-12.65.0",
    "version": "2.0"
  },
  "bufferViews": [
    {
      "buffer": 0,
      "byteLength": 212208,
      "name": "floatBufferViews",
      "target": 34963
    },
    {
      "buffer": 0,
      "byteLength": 599600,
      "byteOffset": 212208,
      "byteStride": 8,
      "name": "floatBufferViews",
      "target": 34962
    },
    {
      "buffer": 0,
      "byteLength": 899976,
      "byteOffset": 811808,
      "byteStride": 12,
      "name": "floatBufferViews",
      "target": 34962
    },
    {
      "buffer": 0,
      "byteLength": 599216,
      "byteOffset": 1711784,
      "byteStride": 16,
      "name": "floatBufferViews",
      "target": 34962
    }
  ],
  "buffers": [
    {
      "byteLength": 2311000,
      "uri": "scene.bin"
    }
  ],
  "images": [
    {
      "uri": "textures/panels.001_baseColor.png"
    },
    {
      "uri": "textures/panels.001_normal.png"
    },
    {
      "uri": "textures/engines.001_baseColor.png"
    },
    {
      "uri": "textures/engines.001_normal.png"
    },
    {
      "uri": "textures/forcefield.001_baseColor.png"
    },
    {
      "uri": "textures/hangar.001_baseColor.png"
    },
    {
      "uri": "textures/hangar.001_normal.png"
    },
    {
      "uri": "textures/sides.001_baseColor.png"
    },
    {
      "uri": "textures/sides.001_normal.png"
    },
    {
      "uri": "textures/trim.001_baseColor.png"
    },
    {
      "uri": "textures/trim.001_normal.png"
    }
  ],
  "materials": [
    {
      "doubleSided": true,
      "name": "panels.001",
      "normalTexture": {
        "index": 1
      },
      "pbrMetallicRoughness": {
        "baseColorTexture": {
          "index": 0
        },
        "metallicFactor": 0.0,
        "roughnessFactor": 0.7986949873896054
      }
    },
    {
      "doubleSided": true,
      "name": "engines.001",
      "normalTexture": {
        "index": 3
      },
      "pbrMetallicRoughness": {
        "baseColorTexture": {
          "index": 2
        },
        "metallicFactor": 0.0,
        "roughnessFactor": 0.8588323823364513
      }
    },
    {
      "doubleSided": true,
      "name": "forcefield.001",
      "pbrMetallicRoughness": {
        "baseColorTexture": {
          "index": 4
        },
        "metallicFactor": 0.0,
        "roughnessFactor": 0.8509135000397815
      }
    },
    {
      "doubleSided": true,
      "name": "hangar.001",
      "normalTexture": {
        "index": 6
      },
      "pbrMetallicRoughness": {
        "baseColorTexture": {
          "index": 5
        },
        "metallicFactor": 0.0,
        "roughnessFactor": 0.8073291264719636
      }
    },
    {
      "doubleSided": true,
      "name": "sides.001",
      "normalTexture": {
        "index": 8
      },
      "pbrMetallicRoughness": {
        "baseColorTexture": {
          "index": 7
        },
        "metallicFactor": 0.0,
        "roughnessFactor": 0.7871763094922481
      }
    },
    {
      "doubleSided": true,
      "name": "trim.001",
      "normalTexture": {
        "index": 10
      },
      "pbrMetallicRoughness": {
        "baseColorTexture": {
          "index": 9
        },
        "metallicFactor": 0.0,
        "roughnessFactor": 0.7808172587855071
      }
    },
    {
      "doubleSided": true,
      "emissiveFactor": [
        0.02582201912672118,
        0.1870006894469951,
        1.0
      ],
      "name": "Material.001",
      "pbrMetallicRoughness": {
        "baseColorFactor": [
          0.009749743417165143,
          0.09481922222520021,
          0.5469729369111541,
          1.0
        ],
        "metallicFactor": 0.0,
        "roughnessFactor": 0.8040408205773457
      }
    }
  ],
  "meshes": [
    {
      "name": "Harrower.001_panels.001_0",
      "primitives": [
        {
          "attributes": {
            "NORMAL": 1,
            "POSITION": 0,
            "TANGENT": 2,
            "TEXCOORD_0": 3,
            "TEXCOORD_1": 4
          },
          "indices": 5,
          "material": 0,
          "mode": 4
        }
      ]
    },
    {
      "name": "Harrower.001_engines.001_0",
      "primitives": [
        {
          "attributes": {
            "NORMAL": 7,
            "POSITION": 6,
            "TANGENT": 8,
            "TEXCOORD_0": 9,
            "TEXCOORD_1": 10
          },
          "indices": 11,
          "material": 1,
          "mode": 4
        }
      ]
    },
    {
      "name": "Harrower.001_forcefield.001_0",
      "primitives": [
        {
          "attributes": {
            "NORMAL": 13,
            "POSITION": 12,
            "TEXCOORD_0": 14
          },
          "indices": 15,
          "material": 2,
          "mode": 4
        }
      ]
    },
    {
      "name": "Harrower.001_hangar.001_0",
      "primitives": [
        {
          "attributes": {
            "NORMAL": 17,
            "POSITION": 16,
            "TANGENT": 18,
            "TEXCOORD_0": 19,
            "TEXCOORD_1": 20
          },
          "indices": 21,
          "material": 3,
          "mode": 4
        }
      ]
    },
    {
      "name": "Harrower.001_sides.001_0",
      "primitives": [
        {
          "attributes": {
            "NORMAL": 23,
            "POSITION": 22,
            "TANGENT": 24,
            "TEXCOORD_0": 25,
            "TEXCOORD_1": 26
          },
          "indices": 27,
          "material": 4,
          "mode": 4
        }
      ]
    },
    {
      "name": "Harrower.001_trim.001_0",
      "primitives": [
        {
          "attributes": {
            "NORMAL": 29,
            "POSITION": 28,
            "TANGENT": 30,
            "TEXCOORD_0": 31,
            "TEXCOORD_1": 32
          },
          "indices": 33,
          "material": 5,
          "mode": 4
        }
      ]
    },
    {
      "name": "Engines_Material.001_0",
      "primitives": [
        {
          "attributes": {
            "NORMAL": 35,
            "POSITION": 34,
            "TEXCOORD_0": 36
          },
          "indices": 37,
          "material": 6,
          "mode": 4
        }
      ]
    }
  ],
  "nodes": [
    {
      "children": [
        1
      ],
      "matrix": [
        1.0,
        0.0,
        0.0,
        0.0,
        0.0,
        2.220446049250313e-16,
        -1.0,
        0.0,
        0.0,
        1.0,
        2.220446049250313e-16,
        0.0,
        0.0,
        0.0,
        0.0,
        1.0
      ],
      "name": "Sketchfab_model"
    },
    {
      "children": [
        2
      ],
      "matrix": [
        1.0,
        0.0,
        0.0,
        0.0,
        0.0,
        0.0,
        1.0,
        0.0,
        0.0,
        -1.0,
        0.0,
        0.0,
        0.0,
        0.0,
        0.0,
        1.0
      ],
      "name": "fba07c2d00424dd7b397b300e015de67.fbx"
    },
    {
      "children": [
        3,
        10
      ],
      "name": "RootNode"
    },
    {
      "children": [
        4,
        5,
        6,
        7,
        8,
        9
      ],
      "matrix": [
        100.0,
        0.0,
        0.0,
        0.0,
        0.0,
        99.99999999999866,
        1.6292067073209114e-05,
        0.0,
        0.0,
        -1.6292067073209114e-05,
        99.99999999999866,
        0.0,
        0.0,
        0.0,
        0.0,
        1.0
      ],
      "name": "Harrower.001"
    },
    {
      "mesh": 0,
      "name": "Harrower.001_panels.001_0"
    },
    {
      "mesh": 1,
      "name": "Harrower.001_engines.001_0"
    },
    {
      "mesh": 2,
      "name": "Harrower.001_forcefield.001_0"
    },
    {
      "mesh": 3,
      "name": "Harrower.001_hangar.001_0"
    },
    {
      "mesh": 4,
      "name": "Harrower.001_sides.001_0"
    },
    {
      "mesh": 5,
      "name": "Harrower.001_trim.001_0"
    },
    {
      "children": [
        11
      ],
      "matrix": [
        100.0,
        0.0,
        0.0,
        0.0,
        0.0,
        99.99999999999866,
        1.6292067073209114e-05,
        0.0,
        0.0,
        -1.6292067073209114e-05,
        99.99999999999866,
        0.0,
        52279.40234375,
        0.0,
        0.0,
        1.0
      ],
      "name": "Engines"
    },
    {
      "mesh": 6,
      "name": "Engines_Material.001_0"
    }
  ],
  "samplers": [
    {
      "magFilter": 9729,
      "minFilter": 9987,
      "wrapS": 10497,
      "wrapT": 10497
    }
  ],
  "scene": 0,
  "scenes": [
    {
      "name": "Sketchfab_Scene",
      "nodes": [
        0
      ]
    }
  ],
  "textures": [
    {
      "sampler": 0,
      "source": 0
    },
    {
      "sampler": 0,
      "source": 1
    },
    {
      "sampler": 0,
      "source": 2
    },
    {
      "sampler": 0,
      "source": 3
    },
    {
      "sampler": 0,
      "source": 4
    },
    {
      "sampler": 0,
      "source": 5
    },
    {
      "sampler": 0,
      "source": 6
    },
    {
      "sampler": 0,
      "source": 7
    },
    {
      "sampler": 0,
      "source": 8
    },
    {
      "sampler": 0,
      "source": 9
    },
    {
      "sampler": 0,
      "source": 10
    }
  ]
}
